<?xml version="1.0" encoding="UTF-8" standalone="no"?>
<!-- Created with Inkscape (http://www.inkscape.org/) -->

<svg
   xmlns:dc="http://purl.org/dc/elements/1.1/"
   xmlns:cc="http://creativecommons.org/ns#"
   xmlns:rdf="http://www.w3.org/1999/02/22-rdf-syntax-ns#"
   xmlns:svg="http://www.w3.org/2000/svg"
   xmlns="http://www.w3.org/2000/svg"
   xmlns:sodipodi="http://sodipodi.sourceforge.net/DTD/sodipodi-0.dtd"
   xmlns:inkscape="http://www.inkscape.org/namespaces/inkscape"
   width="210mm"
   height="297mm"
   viewBox="0 0 210 297"
   version="1.1"
   id="svg8"
   inkscape:version="0.92.4 (5da689c313, 2019-01-14)">
  <defs
     id="defs2" />
  <sodipodi:namedview
     id="base"
     pagecolor="#ffffff"
     bordercolor="#666666"
     borderopacity="1.0"
     inkscape:pageopacity="0.0"
     inkscape:pageshadow="2"
     inkscape:zoom="0.7"
     inkscape:cx="142.62841"
     inkscape:cy="618.62552"
     inkscape:document-units="mm"
     inkscape:current-layer="layer1"
     showgrid="false"
     inkscape:window-width="1920"
     inkscape:window-height="1017"
     inkscape:window-x="-8"
     inkscape:window-y="-8"
     inkscape:window-maximized="1" />
  <metadata
     id="metadata5">
    <rdf:RDF>
      <cc:Work
         rdf:about="">
        <dc:format>image/svg+xml</dc:format>
        <dc:type
           rdf:resource="http://purl.org/dc/dcmitype/StillImage" />
        <dc:title></dc:title>
      </cc:Work>
    </rdf:RDF>
  </metadata>
  <g
     inkscape:label="Layer 1"
     inkscape:groupmode="layer"
     id="layer1">
    <g
       id="g836"
       transform="translate(-3.779762,-7.1815429)">
      <path
         style="fill:#e6e6e6;fill-opacity:1;stroke-width:0.15569019"
         d="m 131.07624,146.59419 c -1.81344,-0.0437 -1.81344,-0.0437 -2.22733,-0.88968 -0.48487,-0.99105 -1.54042,-1.97857 -2.5111,-2.34928 -0.68772,-0.26264 -0.68772,-0.26264 -0.68772,-3.74452 0,-3.48188 0,-3.48188 0.54491,-3.48188 0.29971,0 0.54492,-0.0701 0.54492,-0.15569 0,-0.24299 3.69057,-0.20508 3.78958,0.0389 0.0594,0.14637 0.11932,0.13673 0.24176,-0.0389 0.1302,-0.18678 0.22208,-0.19681 0.45894,-0.0501 0.19148,0.11861 0.34957,0.13004 0.44728,0.0323 0.0977,-0.0977 0.22158,-0.0663 0.35043,0.089 0.25321,0.3051 0.47255,0.30816 0.47255,0.007 0,-0.30028 0.21902,-0.29888 0.46956,0.003 0.18995,0.22887 0.50547,0.22546 1.68422,-0.0182 0.2272,-0.047 0.32585,-0.0144 0.26327,0.0868 -0.055,0.0891 -0.03,0.16193 0.0556,0.16193 0.0856,0 0.20241,-0.0756 0.25952,-0.16799 0.0663,-0.10734 0.37879,-0.13017 0.86548,-0.0632 0.52253,0.0719 0.76166,0.0498 0.76166,-0.0704 0,-0.1 0.21715,-0.16229 0.50599,-0.14515 0.87408,0.0519 1.49533,-0.17392 1.85033,-0.67248 0.33954,-0.47684 0.40215,-0.82655 0.51903,-2.89913 0.0353,-0.62597 0.17351,-1.43167 0.30715,-1.79043 0.94474,-2.53638 0.46278,-6.38549 -0.99786,-7.96929 -0.39509,-0.4284 -0.90605,-1.07201 -1.13548,-1.43026 -0.22943,-0.35824 -0.67825,-0.84867 -0.99738,-1.08983 -0.31913,-0.24116 -1.03933,-0.86037 -1.60045,-1.37603 -1.93466,-1.7779 -3.20252,-2.83274 -4.07734,-3.39229 -0.91973,-0.58828 -1.86493,-1.57438 -2.26676,-2.36483 -0.30909,-0.60803 -1.25574,-1.60003 -1.79894,-1.88511 -0.23549,-0.12359 -0.42815,-0.31772 -0.42815,-0.4314 0,-0.36789 -1.95678,-0.40807 -19.87399,-0.40807 -15.308939,0 -17.491661,0.0286 -17.491661,0.22954 0,0.12624 -0.192666,0.33065 -0.428148,0.45424 -0.543203,0.28508 -1.489859,1.27708 -1.798949,1.88511 -0.401825,0.79045 -1.34703,1.77655 -2.266759,2.36483 -0.874818,0.55955 -2.142677,1.61439 -4.077335,3.39229 -0.56112,0.51566 -1.281322,1.13487 -1.600451,1.37603 -0.31913,0.24117 -0.767949,0.73159 -0.997377,1.08983 -0.22943,0.35825 -0.740397,1.00187 -1.135483,1.43026 -1.460642,1.5838 -1.942599,5.43291 -0.997856,7.96929 0.133631,0.35876 0.271848,1.16446 0.307148,1.79043 0.116875,2.07258 0.179484,2.42229 0.519026,2.89913 0.355004,0.49856 0.976257,0.72435 1.850328,0.67248 0.288849,-0.0171 0.505993,0.0452 0.505993,0.14515 0,0.12018 0.239128,0.14229 0.76166,0.0704 0.486689,-0.0669 0.799144,-0.0441 0.865485,0.0632 0.0571,0.0924 0.173884,0.16799 0.259514,0.16799 0.08563,0 0.110655,-0.0729 0.05561,-0.16193 -0.06258,-0.10125 0.03607,-0.13378 0.263269,-0.0868 1.178746,0.24368 1.494266,0.24709 1.684218,0.0182 0.250543,-0.30189 0.469568,-0.30329 0.469568,-0.003 0,0.30156 0.219333,0.2985 0.472546,-0.007 0.128854,-0.15526 0.25271,-0.18672 0.350424,-0.089 0.09771,0.0977 0.255804,0.0863 0.447281,-0.0323 0.236864,-0.14673 0.328742,-0.1367 0.458944,0.0501 0.122438,0.17564 0.182369,0.18529 0.241759,0.0389 0.09901,-0.244 3.789583,-0.28191 3.789583,-0.0389 0,0.0856 0.245212,0.15569 0.544916,0.15569 0.544916,0 0.544916,0 0.544916,3.48188 0,3.48188 0,3.48188 -0.687728,3.74452 -0.972213,0.37129 -2.026443,1.35868 -2.51345,2.35409 -0.416238,0.85076 -0.416238,0.85076 -2.227327,0.85306 -33.336885,0.0424 -32.928761,0.052 -33.524854,-0.79091 -0.231019,-0.32668 -0.700646,-0.75547 -1.043616,-0.95286 -0.366397,-0.21087 -0.662965,-0.5158 -0.719072,-0.73935 -0.05252,-0.20925 -0.230953,-0.5707 -0.396519,-0.80322 -0.165565,-0.23251 -0.301669,-0.482 -0.302452,-0.55441 -7.83e-4,-0.0724 -0.173743,-0.48196 -0.384357,-0.91011 -0.586632,-1.19254 -0.619426,-33.23985 -0.03401,-33.23985 1.063298,0 2.812971,-1.41118 3.402736,-2.74445 0.301124,-0.68074 0.301124,-0.68074 3.529765,-0.68074 3.22864,0 3.22864,0 3.534666,0.506 0.629412,1.04069 0.835843,1.79331 0.662938,2.417 -0.08844,0.31902 -0.12571,1.03543 -0.08282,1.59202 0.04289,0.55659 0.03237,1.5944 -0.02337,2.30624 -0.05574,0.71184 -0.07599,1.31962 -0.04499,1.35062 0.153283,0.15328 0.151659,1.71575 -0.0019,1.81064 -0.121863,0.0753 -0.0994,0.28834 0.07687,0.72887 0.199934,0.49969 0.214015,0.71529 0.07139,1.09314 -0.519336,1.37588 0.279571,2.56492 1.722456,2.5636 1.899475,-0.002 2.324458,-0.0478 1.97338,-0.21365 -0.237409,-0.11219 -0.200423,-0.12209 0.15569,-0.0417 0.733533,0.16566 1.954728,0.07 2.772277,-0.2171 0.605324,-0.21259 0.772264,-0.22403 0.873703,-0.0599 0.06897,0.11159 0.171099,0.19215 0.226956,0.17902 0.05586,-0.0131 0.498898,0.0586 0.984536,0.15942 2.016828,0.41869 3.480177,-0.16314 5.319878,-2.11519 0.65342,-0.69333 1.518224,-1.48492 1.92179,-1.7591 0.403565,-0.27417 0.788898,-0.58801 0.856296,-0.69742 0.0674,-0.1094 0.367753,-0.36936 0.667457,-0.57768 0.718059,-0.4991 2.556402,-2.33894 3.020754,-3.0232 0.20212,-0.29784 0.588503,-0.7275 0.858624,-0.95479 0.270122,-0.22729 0.594096,-0.61237 0.719942,-0.85573 0.125846,-0.24336 0.542458,-0.62628 0.925804,-0.85094 0.876995,-0.51395 1.365284,-1.09217 1.908756,-2.26031 0.23566,-0.50653 0.516051,-0.92169 0.623088,-0.92259 0.154567,-0.001 0.194613,-3.73386 0.194613,-18.139525 0,-17.8233 -0.0052,-18.137908 -0.300889,-18.137908 -0.165489,0 -0.341131,-0.126789 -0.390315,-0.281755 -0.139861,-0.440667 -1.3002,-1.537874 -1.984301,-1.87634 -0.372069,-0.184085 -0.84299,-0.62567 -1.178795,-1.105366 -0.473289,-0.676088 -2.179558,-2.169532 -2.505502,-2.192988 -0.05574,-0.004 -0.346554,-0.355983 -0.646258,-0.782158 -0.299703,-0.426176 -0.860188,-0.983009 -1.245521,-1.237409 -0.385333,-0.254399 -1.181683,-0.944413 -1.769664,-1.533364 -0.587981,-0.588953 -1.339356,-1.237383 -1.669721,-1.440955 -0.373157,-0.229942 -0.665661,-0.56166 -0.77227,-0.875803 -0.519462,-1.530701 -2.346513,-2.572872 -4.662685,-2.659648 -2.251751,-0.08436 -2.471746,-0.08729 -3.269494,-0.04359 -0.385334,0.02111 -1.261091,-0.0028 -1.946128,-0.05303 -4.28702,-0.314647 -4.229463,-0.317061 -4.745599,0.199075 -0.57881,0.578809 -0.624156,1.332149 -0.131692,2.187822 0.230515,0.400531 0.298305,0.683233 0.212728,0.887142 -0.126839,0.302237 -0.115087,3.003271 0.01398,3.212102 0.447379,0.723877 -0.026,6.240771 -0.587019,6.841349 -0.244802,0.262057 -0.445091,0.539118 -0.445091,0.615693 0,0.07661 -1.242949,0.139224 -2.763769,0.139224 -2.763768,0 -2.763768,0 -3.141223,-0.71151 -0.488323,-0.920497 -1.574352,-1.869329 -2.526832,-2.20762 -0.753898,-0.267761 -0.753898,-0.267761 -0.790479,-16.46192 -0.02012,-8.906787 -0.04299,-16.754644 -0.05083,-17.439681 -0.01688,-1.476034 0.158635,-1.908497 1.16098,-2.860583 1.385531,-1.316061 0.517877,-1.259486 19.362729,-1.262539 16.466202,-0.0027 16.466202,-0.0027 16.836293,0.834172 0.634651,1.435058 2.348533,2.899724 3.393116,2.899724 0.261402,0 0.280812,0.218499 0.280812,3.161108 0,3.466256 -0.0032,3.475946 -1.434657,4.361827 -0.618472,0.382749 -3.811749,0.362473 -5.493557,-0.03488 -0.685037,-0.161851 -1.543868,-0.342769 -1.908513,-0.40204 -0.710537,-0.115494 -2.840038,0.193467 -2.840038,0.412049 0,0.07192 -0.07193,0.130757 -0.15984,0.130757 -0.251237,0 -1.244369,0.954549 -1.639972,1.576257 -0.689008,1.082815 -0.814756,2.873392 -0.304242,4.332271 0.173006,0.494396 0.15492,0.626641 -0.171687,1.255271 -1.332847,2.565375 -0.514622,4.84379 2.602981,7.248215 1.01475,0.782617 3.008281,2.724745 3.015295,2.937546 0.0026,0.08019 0.229801,0.204095 0.504799,0.275355 0.377819,0.0979 0.475834,0.192523 0.40112,0.387229 -0.07545,0.196604 -0.03521,0.233237 0.169774,0.154576 0.159866,-0.06134 0.230133,-0.04077 0.17353,0.05082 -0.05232,0.08465 -0.02092,0.153907 0.06976,0.153907 0.09068,0 0.164879,0.105091 0.164879,0.233535 0,0.128445 0.09337,0.233536 0.207479,0.233536 0.241899,0 0.956438,0.867845 1.538243,1.868282 0.224091,0.385333 0.665572,0.945818 0.981067,1.245522 0.315497,0.299703 0.806483,0.905653 1.091084,1.346553 0.547764,0.848596 1.482779,1.586391 2.448658,1.932172 0.321111,0.114957 0.583838,0.300029 0.583838,0.411271 0,0.164737 3.393676,0.202259 18.293599,0.202259 12.09194,0 18.2936,-0.05278 18.2936,-0.155691 0,-0.08563 0.30671,-0.15569 0.68159,-0.15569 1.20351,0 2.71879,-0.885491 3.37141,-1.970163 0.19813,-0.329299 0.72364,-0.986093 1.16779,-1.459546 0.44415,-0.47345 0.93327,-1.103996 1.08692,-1.401211 0.39775,-0.769378 1.18088,-1.708068 1.42501,-1.708068 0.11411,0 0.20748,-0.105091 0.20748,-0.233535 0,-0.128445 0.0742,-0.233536 0.16488,-0.233536 0.0907,0 0.12207,-0.06926 0.0697,-0.153907 -0.0566,-0.09159 0.0137,-0.112161 0.17354,-0.05082 0.20498,0.07866 0.24521,0.04203 0.16977,-0.154575 -0.0747,-0.194707 0.0233,-0.289327 0.40112,-0.38723 0.275,-0.07126 0.50216,-0.195169 0.5048,-0.275355 0.007,-0.212801 2.00054,-2.154928 3.01529,-2.937546 3.11761,-2.404425 3.93583,-4.68284 2.60298,-7.248214 -0.3266,-0.628631 -0.34469,-0.760876 -0.17168,-1.255271 1.03454,-2.956394 -0.41092,-5.781696 -3.26066,-6.373302 -0.97835,-0.203104 -1.63756,-0.144094 -3.59195,0.321537 -1.67881,0.399975 -4.87251,0.421691 -5.49355,0.03735 -1.43148,-0.88588 -1.43466,-0.89557 -1.43466,-4.361827 0,-2.942609 0.0194,-3.161108 0.28081,-3.161108 1.07495,0 2.94242,-1.638722 3.41915,-3.000328 0.27014,-0.77156 0.27014,-0.77156 17.08468,-0.691549 18.87094,0.0898 17.82525,0.02289 19.08831,1.221281 1.00219,0.950877 1.17786,1.383607 1.16098,2.859822 -0.008,0.685037 -0.0307,8.532894 -0.0508,17.439681 -0.0366,16.194159 -0.0366,16.194159 -0.79048,16.46192 -0.95248,0.338291 -2.03851,1.287124 -2.52683,2.20762 -0.37745,0.71151 -0.37745,0.71151 -3.14122,0.71151 -1.52082,0 -2.76377,-0.06261 -2.76377,-0.139224 0,-0.07658 -0.20029,-0.353636 -0.44509,-0.615692 -0.56102,-0.600578 -1.0344,-6.117473 -0.58702,-6.84135 0.12907,-0.20883 0.14082,-2.909865 0.014,-3.212102 -0.0856,-0.203909 -0.0178,-0.486611 0.21273,-0.887141 0.49247,-0.855674 0.44712,-1.609013 -0.13169,-2.187823 -0.51614,-0.516136 -0.45858,-0.513721 -4.7456,-0.199075 -0.68504,0.05028 -1.56079,0.07414 -1.94613,0.05303 -0.79774,-0.0437 -1.01774,-0.04077 -3.26949,0.04359 -2.31617,0.08678 -4.14322,1.128947 -4.66269,2.659647 -0.10661,0.314143 -0.39911,0.645861 -0.77227,0.875803 -0.33036,0.203573 -1.08174,0.852002 -1.66972,1.440955 -0.58798,0.588951 -1.38433,1.278965 -1.76966,1.533365 -0.38534,0.254399 -0.94582,0.811233 -1.24552,1.237408 -0.29971,0.426176 -0.59052,0.778147 -0.64626,0.782158 -0.32594,0.02346 -2.03221,1.516901 -2.5055,2.192988 -0.33581,0.479696 -0.80673,0.921281 -1.1788,1.105366 -0.6841,0.338466 -1.84444,1.435673 -1.9843,1.87634 -0.0492,0.154966 -0.18104,0.281755 -0.29301,0.281755 -0.11197,0 -0.24737,0.21894 -0.30089,0.486532 -0.16139,0.80696 -0.10989,36.205952 0.0523,35.949482 0.17536,-0.27729 0.15867,-0.29699 0.69208,0.81684 0.55265,1.15402 1.01883,1.70001 1.88476,2.20748 0.38335,0.22466 0.79996,0.60758 0.92581,0.85094 0.12584,0.24336 0.44982,0.62844 0.71994,0.85573 0.27012,0.22729 0.6565,0.65695 0.85862,0.95479 0.46436,0.68426 2.3027,2.5241 3.02076,3.0232 0.2997,0.20832 0.60006,0.46828 0.66745,0.57768 0.0674,0.10941 0.45274,0.42325 0.8563,0.69742 0.40357,0.27418 1.26837,1.06577 1.92179,1.7591 1.8397,1.95205 3.30305,2.53388 5.31988,2.11519 0.48564,-0.10082 0.92868,-0.17256 0.98454,-0.15942 0.0558,0.0131 0.15798,-0.0674 0.22695,-0.17902 0.10144,-0.16413 0.26838,-0.15269 0.8737,0.0599 0.81755,0.28713 2.03875,0.38276 2.77228,0.2171 0.35611,-0.0804 0.3931,-0.0705 0.15569,0.0417 -0.35108,0.16589 0.0739,0.21191 1.97338,0.21365 1.44289,10e-4 2.24179,-1.18772 1.72246,-2.5636 -0.14263,-0.37785 -0.12855,-0.59345 0.0714,-1.09314 0.17627,-0.44053 0.19873,-0.65355 0.0769,-0.72887 -0.15354,-0.0949 -0.15517,-1.65736 -0.002,-1.81064 0.031,-0.031 0.0108,-0.63878 -0.045,-1.35062 -0.0558,-0.71184 -0.0663,-1.74965 -0.0234,-2.30624 0.0429,-0.55659 0.006,-1.273 -0.0828,-1.59202 -0.17291,-0.62369 0.0335,-1.37631 0.66294,-2.417 0.30602,-0.506 0.30602,-0.506 3.53466,-0.506 3.22864,0 3.22864,0 3.52977,0.68074 0.58976,1.33327 2.33944,2.74445 3.40273,2.74445 0.58542,0 0.55262,32.04731 -0.034,33.23985 -0.21061,0.42815 -0.38357,0.8377 -0.38436,0.91011 -7.8e-4,0.0724 -0.13688,0.3219 -0.30245,0.55441 -0.16556,0.23252 -0.344,0.59397 -0.39652,0.80322 -0.0561,0.22355 -0.35267,0.52848 -0.71907,0.73935 -0.34297,0.19739 -0.8126,0.62866 -1.04362,0.95838 -0.41399,0.59087 -0.43793,0.60089 -1.66555,0.69764 -1.25406,0.0988 -28.48375,0.20101 -31.86165,0.11956 z m 24.26012,-6.09098 c 3.69015,-1.09897 6.4415,-5.20778 6.04203,-9.02307 -0.8357,-7.98172 -10.87448,-10.68909 -15.95591,-4.30316 -5.27693,6.6316 1.55533,15.81552 9.91388,13.32623 z m -89.704847,0.0601 c 5.139516,-1.08831 8.202616,-6.64954 6.291444,-11.42247 -2.809149,-7.01551 -12.792548,-7.65455 -16.209803,-1.03758 -3.424996,6.63195 2.469774,14.03733 9.918359,12.46005 z m 45.928607,-37.66179 c 4.07226,-0.72101 7.45876,-3.06618 10.14868,-7.028016 1.17587,-1.731862 1.47952,-2.32967 1.61642,-3.182277 0.0619,-0.385333 0.22596,-1.296121 0.36464,-2.023972 2.31377,-12.143655 -9.57492,-22.489002 -21.15977,-18.412899 -11.852334,4.170216 -13.676844,20.810056 -3.074066,28.036004 1.476206,1.00606 1.655806,1.11385 2.529156,1.51795 0.47096,0.21792 1.06647,0.49596 1.32336,0.61787 1.27656,0.6058 5.98337,0.87694 8.25158,0.47534 z m 44.4172,-52.181125 c 7.51818,-1.540304 9.58462,-11.588577 3.17658,-15.446429 -5.09562,-3.067723 -12.15809,0.160876 -13.36624,6.110354 -0.26045,1.282565 -0.13523,3.541311 0.23482,4.23575 0.0839,0.157438 0.26627,0.547855 0.40528,0.867591 1.43824,3.308127 5.42893,5.076956 9.54956,4.232734 z M 64.396521,50.523794 c 2.520651,-0.669833 4.409396,-2.166495 5.289908,-4.191783 0.139008,-0.319736 0.321383,-0.710153 0.405279,-0.867592 0.370047,-0.694439 0.495264,-2.953184 0.234816,-4.235749 -1.808784,-8.907267 -14.611669,-9.869895 -16.953438,-1.274701 -1.708351,6.270301 4.565463,12.285949 11.023435,10.569825 z"
         id="path842"
         inkscape:connector-curvature="0" />
      <path
         style="fill:#8c8c8c;fill-opacity:1;stroke-width:0.15569019"
         d="m 131.07624,146.59419 c -1.81344,-0.0437 -1.81344,-0.0437 -2.22733,-0.88968 -0.48487,-0.99105 -1.54042,-1.97857 -2.5111,-2.34928 -0.68772,-0.26264 -0.68772,-0.26264 -0.68772,-3.74452 0,-3.48188 0,-3.48188 0.54491,-3.48188 0.29971,0 0.54492,-0.0701 0.54492,-0.15569 0,-0.24299 3.69057,-0.20508 3.78958,0.0389 0.0594,0.14637 0.11932,0.13673 0.24176,-0.0389 0.1302,-0.18678 0.22208,-0.19681 0.45894,-0.0501 0.19148,0.11861 0.34957,0.13004 0.44728,0.0323 0.0977,-0.0977 0.22158,-0.0663 0.35043,0.089 0.25321,0.3051 0.47255,0.30816 0.47255,0.007 0,-0.30028 0.21902,-0.29888 0.46956,0.003 0.18995,0.22887 0.50547,0.22546 1.68422,-0.0182 0.2272,-0.047 0.32585,-0.0144 0.26327,0.0868 -0.055,0.0891 -0.03,0.16193 0.0556,0.16193 0.0856,0 0.20241,-0.0756 0.25952,-0.16799 0.0663,-0.10734 0.37879,-0.13017 0.86548,-0.0632 0.52253,0.0719 0.76166,0.0498 0.76166,-0.0704 0,-0.1 0.21715,-0.16229 0.50599,-0.14515 0.87408,0.0519 1.49533,-0.17392 1.85033,-0.67248 0.33954,-0.47684 0.40215,-0.82655 0.51903,-2.89913 0.0353,-0.62597 0.17351,-1.43167 0.30715,-1.79043 0.94474,-2.53638 0.46278,-6.38549 -0.99786,-7.96929 -0.39509,-0.4284 -0.90605,-1.07201 -1.13548,-1.43026 -0.22943,-0.35824 -0.67825,-0.84867 -0.99738,-1.08983 -0.31913,-0.24116 -1.03933,-0.86037 -1.60045,-1.37603 -1.93466,-1.7779 -3.20252,-2.83274 -4.07734,-3.39229 -0.91973,-0.58828 -1.86493,-1.57438 -2.26676,-2.36483 -0.30909,-0.60803 -1.25574,-1.60003 -1.79894,-1.88511 -0.23549,-0.12359 -0.42815,-0.31772 -0.42815,-0.4314 0,-0.36789 -1.95678,-0.40807 -19.87399,-0.40807 -15.308939,0 -17.491661,0.0286 -17.491661,0.22954 0,0.12624 -0.192666,0.33065 -0.428148,0.45424 -0.543203,0.28508 -1.489859,1.27708 -1.798949,1.88511 -0.401825,0.79045 -1.34703,1.77655 -2.266759,2.36483 -0.874818,0.55955 -2.142677,1.61439 -4.077335,3.39229 -0.56112,0.51566 -1.281322,1.13487 -1.600451,1.37603 -0.31913,0.24117 -0.767949,0.73159 -0.997377,1.08983 -0.22943,0.35825 -0.740397,1.00187 -1.135483,1.43026 -1.460642,1.5838 -1.942599,5.43291 -0.997856,7.96929 0.133631,0.35876 0.271848,1.16446 0.307148,1.79043 0.116875,2.07258 0.179484,2.42229 0.519026,2.89913 0.355004,0.49856 0.976257,0.72435 1.850328,0.67248 0.288849,-0.0171 0.505993,0.0452 0.505993,0.14515 0,0.12018 0.239128,0.14229 0.76166,0.0704 0.486689,-0.0669 0.799144,-0.0441 0.865485,0.0632 0.0571,0.0924 0.173884,0.16799 0.259514,0.16799 0.08563,0 0.110655,-0.0729 0.05561,-0.16193 -0.06258,-0.10125 0.03607,-0.13378 0.263269,-0.0868 1.178746,0.24368 1.494266,0.24709 1.684218,0.0182 0.250543,-0.30189 0.469568,-0.30329 0.469568,-0.003 0,0.30156 0.219333,0.2985 0.472546,-0.007 0.128854,-0.15526 0.25271,-0.18672 0.350424,-0.089 0.09771,0.0977 0.255804,0.0863 0.447281,-0.0323 0.236864,-0.14673 0.328742,-0.1367 0.458944,0.0501 0.122438,0.17564 0.182369,0.18529 0.241759,0.0389 0.09901,-0.244 3.789583,-0.28191 3.789583,-0.0389 0,0.0856 0.245212,0.15569 0.544916,0.15569 0.544916,0 0.544916,0 0.544916,3.48188 0,3.48188 0,3.48188 -0.687728,3.74452 -0.972213,0.37129 -2.026443,1.35868 -2.51345,2.35409 -0.416238,0.85076 -0.416238,0.85076 -2.227327,0.85306 -33.336885,0.0424 -32.928761,0.052 -33.524854,-0.79091 -0.231019,-0.32668 -0.700646,-0.75547 -1.043616,-0.95286 -0.366397,-0.21087 -0.662965,-0.5158 -0.719072,-0.73935 -0.05252,-0.20925 -0.230953,-0.5707 -0.396519,-0.80322 -0.165565,-0.23251 -0.301669,-0.482 -0.302452,-0.55441 -7.83e-4,-0.0724 -0.173743,-0.48196 -0.384357,-0.91011 -0.586632,-1.19254 -0.619426,-33.23985 -0.03401,-33.23985 1.063298,0 2.812971,-1.41118 3.402736,-2.74445 0.301124,-0.68074 0.301124,-0.68074 3.529765,-0.68074 3.22864,0 3.22864,0 3.534666,0.506 0.629412,1.04069 0.835843,1.79331 0.662938,2.417 -0.08844,0.31902 -0.12571,1.03543 -0.08282,1.59202 0.04289,0.55659 0.03237,1.5944 -0.02337,2.30624 -0.05574,0.71184 -0.07599,1.31962 -0.04499,1.35062 0.153283,0.15328 0.151659,1.71575 -0.0019,1.81064 -0.121863,0.0753 -0.0994,0.28834 0.07687,0.72887 0.199934,0.49969 0.214015,0.71529 0.07139,1.09314 -0.519336,1.37588 0.279571,2.56492 1.722456,2.5636 1.899475,-0.002 2.324458,-0.0478 1.97338,-0.21365 -0.237409,-0.11219 -0.200423,-0.12209 0.15569,-0.0417 0.733533,0.16566 1.954728,0.07 2.772277,-0.2171 0.605324,-0.21259 0.772264,-0.22403 0.873703,-0.0599 0.06897,0.11159 0.171099,0.19215 0.226956,0.17902 0.05586,-0.0131 0.498898,0.0586 0.984536,0.15942 2.016828,0.41869 3.480177,-0.16314 5.319878,-2.11519 0.65342,-0.69333 1.518224,-1.48492 1.92179,-1.7591 0.403565,-0.27417 0.788898,-0.58801 0.856296,-0.69742 0.0674,-0.1094 0.367753,-0.36936 0.667457,-0.57768 0.718059,-0.4991 2.556402,-2.33894 3.020754,-3.0232 0.20212,-0.29784 0.588503,-0.7275 0.858624,-0.95479 0.270122,-0.22729 0.594096,-0.61237 0.719942,-0.85573 0.125846,-0.24336 0.542458,-0.62628 0.925804,-0.85094 0.876995,-0.51395 1.365284,-1.09217 1.908756,-2.26031 0.23566,-0.50653 0.516051,-0.92169 0.623088,-0.92259 0.154567,-0.001 0.194613,-3.73386 0.194613,-18.139525 0,-17.8233 -0.0052,-18.137908 -0.300889,-18.137908 -0.165489,0 -0.341131,-0.126789 -0.390315,-0.281755 -0.139861,-0.440667 -1.3002,-1.537874 -1.984301,-1.87634 -0.372069,-0.184085 -0.84299,-0.62567 -1.178795,-1.105366 -0.473289,-0.676088 -2.179558,-2.169532 -2.505502,-2.192988 -0.05574,-0.004 -0.346554,-0.355983 -0.646258,-0.782158 -0.299703,-0.426176 -0.860188,-0.983009 -1.245521,-1.237409 -0.385333,-0.254399 -1.181683,-0.944413 -1.769664,-1.533364 -0.587981,-0.588953 -1.339356,-1.237383 -1.669721,-1.440955 -0.373157,-0.229942 -0.665661,-0.56166 -0.77227,-0.875803 -0.519462,-1.530701 -2.346513,-2.572872 -4.662685,-2.659648 -2.251751,-0.08436 -2.471746,-0.08729 -3.269494,-0.04359 -0.385334,0.02111 -1.261091,-0.0028 -1.946128,-0.05303 -4.28702,-0.314647 -4.229463,-0.317061 -4.745599,0.199075 -0.57881,0.578809 -0.624156,1.332149 -0.131692,2.187822 0.230515,0.400531 0.298305,0.683233 0.212728,0.887142 -0.126839,0.302237 -0.115087,3.003271 0.01398,3.212102 0.447379,0.723877 -0.026,6.240771 -0.587019,6.841349 -0.244802,0.262057 -0.445091,0.539118 -0.445091,0.615693 0,0.07661 -1.242949,0.139224 -2.763769,0.139224 -2.763768,0 -2.763768,0 -3.141223,-0.71151 -0.488323,-0.920497 -1.574352,-1.869329 -2.526832,-2.20762 -0.753898,-0.267761 -0.753898,-0.267761 -0.790479,-16.46192 -0.02012,-8.906787 -0.04299,-16.754644 -0.05083,-17.439681 -0.01688,-1.476034 0.158635,-1.908497 1.16098,-2.860583 1.385531,-1.316061 0.517877,-1.259486 19.362729,-1.262539 16.466202,-0.0027 16.466202,-0.0027 16.836293,0.834172 0.634651,1.435058 2.348533,2.899724 3.393116,2.899724 0.261402,0 0.280812,0.218499 0.280812,3.161108 0,3.466256 -0.0032,3.475946 -1.434657,4.361827 -0.618472,0.382749 -3.811749,0.362473 -5.493557,-0.03488 -0.685037,-0.161851 -1.543868,-0.342769 -1.908513,-0.40204 -0.710537,-0.115494 -2.840038,0.193467 -2.840038,0.412049 0,0.07192 -0.07193,0.130757 -0.15984,0.130757 -0.251237,0 -1.244369,0.954549 -1.639972,1.576257 -0.689008,1.082815 -0.814756,2.873392 -0.304242,4.332271 0.173006,0.494396 0.15492,0.626641 -0.171687,1.255271 -1.332847,2.565375 -0.514622,4.84379 2.602981,7.248215 1.01475,0.782617 3.008281,2.724745 3.015295,2.937546 0.0026,0.08019 0.229801,0.204095 0.504799,0.275355 0.377819,0.0979 0.475834,0.192523 0.40112,0.387229 -0.07545,0.196604 -0.03521,0.233237 0.169774,0.154576 0.159866,-0.06134 0.230133,-0.04077 0.17353,0.05082 -0.05232,0.08465 -0.02092,0.153907 0.06976,0.153907 0.09068,0 0.164879,0.105091 0.164879,0.233535 0,0.128445 0.09337,0.233536 0.207479,0.233536 0.241899,0 0.956438,0.867845 1.538243,1.868282 0.224091,0.385333 0.665572,0.945818 0.981067,1.245522 0.315497,0.299703 0.806483,0.905653 1.091084,1.346553 0.547764,0.848596 1.482779,1.586391 2.448658,1.932172 0.321111,0.114957 0.583838,0.300029 0.583838,0.411271 0,0.164737 3.393676,0.202259 18.293599,0.202259 12.09194,0 18.2936,-0.05278 18.2936,-0.155691 0,-0.08563 0.30671,-0.15569 0.68159,-0.15569 1.20351,0 2.71879,-0.885491 3.37141,-1.970163 0.19813,-0.329299 0.72364,-0.986093 1.16779,-1.459546 0.44415,-0.47345 0.93327,-1.103996 1.08692,-1.401211 0.39775,-0.769378 1.18088,-1.708068 1.42501,-1.708068 0.11411,0 0.20748,-0.105091 0.20748,-0.233535 0,-0.128445 0.0742,-0.233536 0.16488,-0.233536 0.0907,0 0.12207,-0.06926 0.0697,-0.153907 -0.0566,-0.09159 0.0137,-0.112161 0.17354,-0.05082 0.20498,0.07866 0.24521,0.04203 0.16977,-0.154575 -0.0747,-0.194707 0.0233,-0.289327 0.40112,-0.38723 0.275,-0.07126 0.50216,-0.195169 0.5048,-0.275355 0.007,-0.212801 2.00054,-2.154928 3.01529,-2.937546 3.11761,-2.404425 3.93583,-4.68284 2.60298,-7.248214 -0.3266,-0.628631 -0.34469,-0.760876 -0.17168,-1.255271 0.51051,-1.45888 0.38476,-3.249457 -0.30425,-4.332272 -0.3956,-0.621708 -1.38873,-1.576257 -1.63997,-1.576257 -0.0879,0 -0.15984,-0.05884 -0.15984,-0.130756 0,-0.218583 -2.1295,-0.527544 -2.84004,-0.41205 -0.36464,0.05927 -1.22347,0.240189 -1.90851,0.40204 -1.68181,0.397354 -4.87508,0.41763 -5.49355,0.03488 -1.43148,-0.88588 -1.43466,-0.89557 -1.43466,-4.361827 0,-2.942609 0.0194,-3.161108 0.28081,-3.161108 1.07495,0 2.94242,-1.638722 3.41915,-3.000328 0.27014,-0.77156 0.27014,-0.77156 17.08468,-0.691549 18.87094,0.0898 17.82525,0.02289 19.08831,1.221281 1.00219,0.950877 1.17786,1.383607 1.16098,2.859822 -0.008,0.685037 -0.0307,8.532894 -0.0508,17.439681 -0.0366,16.194159 -0.0366,16.194159 -0.79048,16.46192 -0.95248,0.338291 -2.03851,1.287124 -2.52683,2.20762 -0.37745,0.71151 -0.37745,0.71151 -3.14122,0.71151 -1.52082,0 -2.76377,-0.06261 -2.76377,-0.139224 0,-0.07658 -0.20029,-0.353636 -0.44509,-0.615692 -0.56102,-0.600578 -1.0344,-6.117473 -0.58702,-6.84135 0.12907,-0.20883 0.14082,-2.909865 0.014,-3.212102 -0.0856,-0.203909 -0.0178,-0.486611 0.21273,-0.887141 0.49247,-0.855674 0.44712,-1.609013 -0.13169,-2.187823 -0.51614,-0.516136 -0.45858,-0.513721 -4.7456,-0.199075 -0.68504,0.05028 -1.56079,0.07414 -1.94613,0.05303 -0.79774,-0.0437 -1.01774,-0.04077 -3.26949,0.04359 -2.31617,0.08678 -4.14322,1.128947 -4.66269,2.659647 -0.10661,0.314143 -0.39911,0.645861 -0.77227,0.875803 -0.33036,0.203573 -1.08174,0.852002 -1.66972,1.440955 -0.58798,0.588951 -1.38433,1.278965 -1.76966,1.533365 -0.38534,0.254399 -0.94582,0.811233 -1.24552,1.237408 -0.29971,0.426176 -0.59052,0.778147 -0.64626,0.782158 -0.32594,0.02346 -2.03221,1.516901 -2.5055,2.192988 -0.33581,0.479696 -0.80673,0.921281 -1.1788,1.105366 -0.6841,0.338466 -1.84444,1.435673 -1.9843,1.87634 -0.0492,0.154966 -0.18104,0.281755 -0.29301,0.281755 -0.11197,0 -0.24737,0.21894 -0.30089,0.486532 -0.16139,0.80696 -0.10989,36.205952 0.0523,35.949482 0.17536,-0.27729 0.15867,-0.29699 0.69208,0.81684 0.55265,1.15402 1.01883,1.70001 1.88476,2.20748 0.38335,0.22466 0.79996,0.60758 0.92581,0.85094 0.12584,0.24336 0.44982,0.62844 0.71994,0.85573 0.27012,0.22729 0.6565,0.65695 0.85862,0.95479 0.46436,0.68426 2.3027,2.5241 3.02076,3.0232 0.2997,0.20832 0.60006,0.46828 0.66745,0.57768 0.0674,0.10941 0.45274,0.42325 0.8563,0.69742 0.40357,0.27418 1.26837,1.06577 1.92179,1.7591 1.8397,1.95205 3.30305,2.53388 5.31988,2.11519 0.48564,-0.10082 0.92868,-0.17256 0.98454,-0.15942 0.0558,0.0131 0.15798,-0.0674 0.22695,-0.17902 0.10144,-0.16413 0.26838,-0.15269 0.8737,0.0599 0.81755,0.28713 2.03875,0.38276 2.77228,0.2171 0.35611,-0.0804 0.3931,-0.0705 0.15569,0.0417 -0.35108,0.16589 0.0739,0.21191 1.97338,0.21365 1.44289,10e-4 2.24179,-1.18772 1.72246,-2.5636 -0.14263,-0.37785 -0.12855,-0.59345 0.0714,-1.09314 0.17627,-0.44053 0.19873,-0.65355 0.0769,-0.72887 -0.15354,-0.0949 -0.15517,-1.65736 -0.002,-1.81064 0.031,-0.031 0.0108,-0.63878 -0.045,-1.35062 -0.0558,-0.71184 -0.0663,-1.74965 -0.0234,-2.30624 0.0429,-0.55659 0.006,-1.273 -0.0828,-1.59202 -0.17291,-0.62369 0.0335,-1.37631 0.66294,-2.417 0.30602,-0.506 0.30602,-0.506 3.53466,-0.506 3.22864,0 3.22864,0 3.52977,0.68074 0.58976,1.33327 2.33944,2.74445 3.40273,2.74445 0.58542,0 0.55262,32.04731 -0.034,33.23985 -0.21061,0.42815 -0.38357,0.8377 -0.38436,0.91011 -7.8e-4,0.0724 -0.13688,0.3219 -0.30245,0.55441 -0.16556,0.23252 -0.344,0.59397 -0.39652,0.80322 -0.0561,0.22355 -0.35267,0.52848 -0.71907,0.73935 -0.34297,0.19739 -0.8126,0.62866 -1.04362,0.95838 -0.41399,0.59087 -0.43793,0.60089 -1.66555,0.69764 -1.25406,0.0988 -28.48375,0.20101 -31.86165,0.11956 z m 24.26012,-6.09098 c 3.69015,-1.09897 6.4415,-5.20778 6.04203,-9.02307 -0.8357,-7.98172 -10.87448,-10.68909 -15.95591,-4.30316 -5.27693,6.6316 1.55533,15.81552 9.91388,13.32623 z m -89.704847,0.0601 c 5.139516,-1.08831 8.202616,-6.64954 6.291444,-11.42247 -2.809149,-7.01551 -12.792548,-7.65455 -16.209803,-1.03758 -3.424996,6.63195 2.469774,14.03733 9.918359,12.46005 z m 45.928607,-37.66179 c 4.07226,-0.72101 7.45876,-3.06618 10.14868,-7.028016 1.17587,-1.731862 1.47952,-2.32967 1.61642,-3.182277 0.0619,-0.385333 0.22596,-1.296121 0.36464,-2.023972 2.31377,-12.143655 -9.57492,-22.489002 -21.15977,-18.412899 -11.852334,4.170216 -13.676844,20.810056 -3.074066,28.036004 1.476206,1.00606 1.655806,1.11385 2.529156,1.51795 0.47096,0.21792 1.06647,0.49596 1.32336,0.61787 1.27656,0.6058 5.98337,0.87694 8.25158,0.47534 z m 44.4172,-52.181125 c 7.51818,-1.540304 9.58462,-11.588577 3.17658,-15.446429 -5.09562,-3.067723 -12.15809,0.160876 -13.36624,6.110354 -0.26045,1.282565 -0.13523,3.541311 0.23482,4.23575 0.0839,0.157438 0.26627,0.547855 0.40528,0.867591 1.43824,3.308127 5.42893,5.076956 9.54956,4.232734 z M 64.396521,50.523794 c 2.520651,-0.669833 4.409396,-2.166495 5.289908,-4.191783 0.139008,-0.319736 0.321383,-0.710153 0.405279,-0.867592 0.370047,-0.694439 0.495264,-2.953184 0.234816,-4.235749 -1.808784,-8.907267 -14.611669,-9.869895 -16.953438,-1.274701 -1.708351,6.270301 4.565463,12.285949 11.023435,10.569825 z"
         id="path840"
         inkscape:connector-curvature="0" />
      <path
         style="fill:#333333;fill-opacity:1;stroke-width:0.15569019"
         d="m 131.07624,146.59419 c -1.81344,-0.0437 -1.81344,-0.0437 -2.22733,-0.88968 -0.48487,-0.99105 -1.54042,-1.97857 -2.5111,-2.34928 -0.68772,-0.26264 -0.68772,-0.26264 -0.68772,-3.74452 0,-3.48188 0,-3.48188 0.54491,-3.48188 0.29971,0 0.54492,-0.0701 0.54492,-0.15569 0,-0.24299 3.69057,-0.20508 3.78958,0.0389 0.0594,0.14637 0.11932,0.13673 0.24176,-0.0389 0.1302,-0.18678 0.22208,-0.19681 0.45894,-0.0501 0.19148,0.11861 0.34957,0.13004 0.44728,0.0323 0.0977,-0.0977 0.22158,-0.0663 0.35043,0.089 0.25321,0.3051 0.47255,0.30816 0.47255,0.007 0,-0.30028 0.21902,-0.29888 0.46956,0.003 0.18995,0.22887 0.50547,0.22546 1.68422,-0.0182 0.2272,-0.047 0.32585,-0.0144 0.26327,0.0868 -0.055,0.0891 -0.03,0.16193 0.0556,0.16193 0.0856,0 0.20241,-0.0756 0.25952,-0.16799 0.0663,-0.10734 0.37879,-0.13017 0.86548,-0.0632 0.52253,0.0719 0.76166,0.0498 0.76166,-0.0704 0,-0.1 0.21715,-0.16229 0.50599,-0.14515 0.87408,0.0519 1.49533,-0.17392 1.85033,-0.67248 0.33954,-0.47684 0.40215,-0.82655 0.51903,-2.89913 0.0353,-0.62597 0.17351,-1.43167 0.30715,-1.79043 0.94474,-2.53638 0.46278,-6.38549 -0.99786,-7.96929 -0.39509,-0.4284 -0.90605,-1.07201 -1.13548,-1.43026 -0.22943,-0.35824 -0.67825,-0.84867 -0.99738,-1.08983 -0.31913,-0.24116 -1.03933,-0.86037 -1.60045,-1.37603 -1.93466,-1.7779 -3.20252,-2.83274 -4.07734,-3.39229 -0.91973,-0.58828 -1.86493,-1.57438 -2.26676,-2.36483 -0.30909,-0.60803 -1.25574,-1.60003 -1.79894,-1.88511 -0.23549,-0.12359 -0.42815,-0.31772 -0.42815,-0.4314 0,-0.36789 -1.95678,-0.40807 -19.87399,-0.40807 -15.308939,0 -17.491661,0.0286 -17.491661,0.22954 0,0.12624 -0.192666,0.33065 -0.428148,0.45424 -0.543203,0.28508 -1.489859,1.27708 -1.798949,1.88511 -0.401825,0.79045 -1.34703,1.77655 -2.266759,2.36483 -0.874818,0.55955 -2.142677,1.61439 -4.077335,3.39229 -0.56112,0.51566 -1.281322,1.13487 -1.600451,1.37603 -0.31913,0.24117 -0.767949,0.73159 -0.997377,1.08983 -0.22943,0.35825 -0.740397,1.00187 -1.135483,1.43026 -1.460642,1.5838 -1.942599,5.43291 -0.997856,7.96929 0.133631,0.35876 0.271848,1.16446 0.307148,1.79043 0.116875,2.07258 0.179484,2.42229 0.519026,2.89913 0.355004,0.49856 0.976257,0.72435 1.850328,0.67248 0.288849,-0.0171 0.505993,0.0452 0.505993,0.14515 0,0.12018 0.239128,0.14229 0.76166,0.0704 0.486689,-0.0669 0.799144,-0.0441 0.865485,0.0632 0.0571,0.0924 0.173884,0.16799 0.259514,0.16799 0.08563,0 0.110655,-0.0729 0.05561,-0.16193 -0.06258,-0.10125 0.03607,-0.13378 0.263269,-0.0868 1.178746,0.24368 1.494266,0.24709 1.684218,0.0182 0.250543,-0.30189 0.469568,-0.30329 0.469568,-0.003 0,0.30156 0.219333,0.2985 0.472546,-0.007 0.128854,-0.15526 0.25271,-0.18672 0.350424,-0.089 0.09771,0.0977 0.255804,0.0863 0.447281,-0.0323 0.236864,-0.14673 0.328742,-0.1367 0.458944,0.0501 0.122438,0.17564 0.182369,0.18529 0.241759,0.0389 0.09901,-0.244 3.789583,-0.28191 3.789583,-0.0389 0,0.0856 0.245212,0.15569 0.544916,0.15569 0.544916,0 0.544916,0 0.544916,3.48188 0,3.48188 0,3.48188 -0.687728,3.74452 -0.972213,0.37129 -2.026443,1.35868 -2.51345,2.35409 -0.416238,0.85076 -0.416238,0.85076 -2.227327,0.85306 -33.336885,0.0424 -32.928761,0.052 -33.524854,-0.79091 -0.231019,-0.32668 -0.700646,-0.75547 -1.043616,-0.95286 -0.366397,-0.21087 -0.662965,-0.5158 -0.719072,-0.73935 -0.05252,-0.20925 -0.230953,-0.5707 -0.396519,-0.80322 -0.165565,-0.23251 -0.301669,-0.482 -0.302452,-0.55441 -7.83e-4,-0.0724 -0.173743,-0.48196 -0.384357,-0.91011 -0.586632,-1.19254 -0.619426,-33.23985 -0.03401,-33.23985 1.063298,0 2.812971,-1.41118 3.402736,-2.74445 0.301124,-0.68074 0.301124,-0.68074 3.529765,-0.68074 3.22864,0 3.22864,0 3.534666,0.506 0.629412,1.04069 0.835843,1.79331 0.662938,2.417 -0.08844,0.31902 -0.12571,1.03543 -0.08282,1.59202 0.04289,0.55659 0.03237,1.5944 -0.02337,2.30624 -0.05574,0.71184 -0.07599,1.31962 -0.04499,1.35062 0.153283,0.15328 0.151659,1.71575 -0.0019,1.81064 -0.121863,0.0753 -0.0994,0.28834 0.07687,0.72887 0.199934,0.49969 0.214015,0.71529 0.07139,1.09314 -0.519336,1.37588 0.279571,2.56492 1.722456,2.5636 1.899475,-0.002 2.324458,-0.0478 1.97338,-0.21365 -0.237409,-0.11219 -0.200423,-0.12209 0.15569,-0.0417 0.733533,0.16566 1.954728,0.07 2.772277,-0.2171 0.605324,-0.21259 0.772264,-0.22403 0.873703,-0.0599 0.06897,0.11159 0.171099,0.19215 0.226956,0.17902 0.05586,-0.0131 0.498898,0.0586 0.984536,0.15942 2.016828,0.41869 3.480177,-0.16314 5.319878,-2.11519 0.65342,-0.69333 1.518224,-1.48492 1.92179,-1.7591 0.403565,-0.27417 0.788898,-0.58801 0.856296,-0.69742 0.0674,-0.1094 0.367753,-0.36936 0.667457,-0.57768 0.718059,-0.4991 2.556402,-2.33894 3.020754,-3.0232 0.20212,-0.29784 0.588503,-0.7275 0.858624,-0.95479 0.270122,-0.22729 0.594096,-0.61237 0.719942,-0.85573 0.125846,-0.24336 0.542458,-0.62628 0.925804,-0.85094 0.876995,-0.51395 1.365284,-1.09217 1.908756,-2.26031 0.23566,-0.50653 0.516051,-0.92169 0.623088,-0.92259 0.154567,-0.001 0.194613,-3.73386 0.194613,-18.139525 0,-17.8233 -0.0052,-18.137908 -0.300889,-18.137908 -0.165489,0 -0.341131,-0.126789 -0.390315,-0.281755 -0.139861,-0.440667 -1.3002,-1.537874 -1.984301,-1.87634 -0.372069,-0.184085 -0.84299,-0.62567 -1.178795,-1.105366 -0.473289,-0.676088 -2.179558,-2.169532 -2.505502,-2.192988 -0.05574,-0.004 -0.346554,-0.355983 -0.646258,-0.782158 -0.299703,-0.426176 -0.860188,-0.983009 -1.245521,-1.237409 -0.385333,-0.254399 -1.181683,-0.944413 -1.769664,-1.533364 -0.587981,-0.588953 -1.339356,-1.237383 -1.669721,-1.440955 -0.373157,-0.229942 -0.665661,-0.56166 -0.77227,-0.875803 -0.519462,-1.530701 -2.346513,-2.572872 -4.662685,-2.659648 -2.251751,-0.08436 -2.471746,-0.08729 -3.269494,-0.04359 -0.385334,0.02111 -1.261091,-0.0028 -1.946128,-0.05303 -4.28702,-0.314647 -4.229463,-0.317061 -4.745599,0.199075 -0.57881,0.578809 -0.624156,1.332149 -0.131692,2.187822 0.230515,0.400531 0.298305,0.683233 0.212728,0.887142 -0.126839,0.302237 -0.115087,3.003271 0.01398,3.212102 0.447379,0.723877 -0.026,6.240771 -0.587019,6.841349 -0.244802,0.262057 -0.445091,0.539118 -0.445091,0.615693 0,0.07661 -1.242949,0.139224 -2.763769,0.139224 -2.763768,0 -2.763768,0 -3.141223,-0.71151 -0.488323,-0.920497 -1.574352,-1.869329 -2.526832,-2.20762 -0.753898,-0.267761 -0.753898,-0.267761 -0.790479,-16.46192 -0.02012,-8.906787 -0.04299,-16.754644 -0.05083,-17.439681 -0.01688,-1.476034 0.158635,-1.908497 1.16098,-2.860583 1.385531,-1.316061 0.517877,-1.259486 19.362729,-1.262539 16.466202,-0.0027 16.466202,-0.0027 16.836293,0.834172 0.634651,1.435058 2.348533,2.899724 3.393116,2.899724 0.261402,0 0.280812,0.218499 0.280812,3.161108 0,3.466256 -0.0032,3.475946 -1.434657,4.361827 -0.618472,0.382749 -3.811749,0.362473 -5.493557,-0.03488 -0.685037,-0.161851 -1.543868,-0.342769 -1.908513,-0.40204 -0.710537,-0.115494 -2.840038,0.193467 -2.840038,0.412049 0,0.07192 -0.07193,0.130757 -0.15984,0.130757 -0.251237,0 -1.244369,0.954549 -1.639972,1.576257 -0.689008,1.082815 -0.814756,2.873392 -0.304242,4.332271 0.173006,0.494396 0.15492,0.626641 -0.171687,1.255271 -1.332847,2.565375 -0.514622,4.84379 2.602981,7.248215 1.01475,0.782617 3.008281,2.724745 3.015295,2.937546 0.0026,0.08019 0.229801,0.204095 0.504799,0.275355 0.377819,0.0979 0.475834,0.192523 0.40112,0.387229 -0.07545,0.196604 -0.03521,0.233237 0.169774,0.154576 0.159866,-0.06134 0.230133,-0.04077 0.17353,0.05082 -0.05232,0.08465 -0.02092,0.153907 0.06976,0.153907 0.09068,0 0.164879,0.105091 0.164879,0.233535 0,0.128445 0.09337,0.233536 0.207479,0.233536 0.241899,0 0.956438,0.867845 1.538243,1.868282 0.224091,0.385333 0.665572,0.945818 0.981067,1.245522 0.315497,0.299703 0.806483,0.905653 1.091084,1.346553 0.547764,0.848596 1.482779,1.586391 2.448658,1.932172 0.321111,0.114957 0.583838,0.300029 0.583838,0.411271 0,0.164737 3.393676,0.202259 18.293599,0.202259 12.09194,0 18.2936,-0.05278 18.2936,-0.155691 0,-0.08563 0.30671,-0.15569 0.68159,-0.15569 1.20351,0 2.71879,-0.885491 3.37141,-1.970163 0.19813,-0.329299 0.72364,-0.986093 1.16779,-1.459546 0.44415,-0.47345 0.93327,-1.103996 1.08692,-1.401211 0.39775,-0.769378 1.18088,-1.708068 1.42501,-1.708068 0.11411,0 0.20748,-0.105091 0.20748,-0.233535 0,-0.128445 0.0742,-0.233536 0.16488,-0.233536 0.0907,0 0.12207,-0.06926 0.0697,-0.153907 -0.0566,-0.09159 0.0137,-0.112161 0.17354,-0.05082 0.20498,0.07866 0.24521,0.04203 0.16977,-0.154575 -0.0747,-0.194707 0.0233,-0.289327 0.40112,-0.38723 0.275,-0.07126 0.50216,-0.195169 0.5048,-0.275355 0.007,-0.212801 2.00054,-2.154928 3.01529,-2.937546 3.11761,-2.404425 3.93583,-4.68284 2.60298,-7.248214 -0.3266,-0.628631 -0.34469,-0.760876 -0.17168,-1.255271 0.51051,-1.45888 0.38476,-3.249457 -0.30425,-4.332272 -0.3956,-0.621708 -1.38873,-1.576257 -1.63997,-1.576257 -0.0879,0 -0.15984,-0.05884 -0.15984,-0.130756 0,-0.218583 -2.1295,-0.527544 -2.84004,-0.41205 -0.36464,0.05927 -1.22347,0.240189 -1.90851,0.40204 -1.68181,0.397354 -4.87508,0.41763 -5.49355,0.03488 -1.43148,-0.88588 -1.43466,-0.89557 -1.43466,-4.361827 0,-2.942609 0.0194,-3.161108 0.28081,-3.161108 1.07495,0 2.94242,-1.638722 3.41915,-3.000328 0.27014,-0.77156 0.27014,-0.77156 17.08468,-0.691549 18.87094,0.0898 17.82525,0.02289 19.08831,1.221281 1.00219,0.950877 1.17786,1.383607 1.16098,2.859822 -0.008,0.685037 -0.0307,8.532894 -0.0508,17.439681 -0.0366,16.194159 -0.0366,16.194159 -0.79048,16.46192 -0.95248,0.338291 -2.03851,1.287124 -2.52683,2.20762 -0.37745,0.71151 -0.37745,0.71151 -3.14122,0.71151 -1.52082,0 -2.76377,-0.06261 -2.76377,-0.139224 0,-0.07658 -0.20029,-0.353636 -0.44509,-0.615692 -0.56102,-0.600578 -1.0344,-6.117473 -0.58702,-6.84135 0.12907,-0.20883 0.14082,-2.909865 0.014,-3.212102 -0.0856,-0.203909 -0.0178,-0.486611 0.21273,-0.887141 0.49247,-0.855674 0.44712,-1.609013 -0.13169,-2.187823 -0.51614,-0.516136 -0.45858,-0.513721 -4.7456,-0.199075 -0.68504,0.05028 -1.56079,0.07414 -1.94613,0.05303 -0.79774,-0.0437 -1.01774,-0.04077 -3.26949,0.04359 -2.31617,0.08678 -4.14322,1.128947 -4.66269,2.659647 -0.10661,0.314143 -0.39911,0.645861 -0.77227,0.875803 -0.33036,0.203573 -1.08174,0.852002 -1.66972,1.440955 -0.58798,0.588951 -1.38433,1.278965 -1.76966,1.533365 -0.38534,0.254399 -0.94582,0.811233 -1.24552,1.237408 -0.29971,0.426176 -0.59052,0.778147 -0.64626,0.782158 -0.32594,0.02346 -2.03221,1.516901 -2.5055,2.192988 -0.33581,0.479696 -0.80673,0.921281 -1.1788,1.105366 -0.6841,0.338466 -1.84444,1.435673 -1.9843,1.87634 -0.0492,0.154966 -0.18104,0.281755 -0.29301,0.281755 -0.11197,0 -0.24737,0.21894 -0.30089,0.486532 -0.16139,0.80696 -0.10989,36.205952 0.0523,35.949482 0.17536,-0.27729 0.15867,-0.29699 0.69208,0.81684 0.55265,1.15402 1.01883,1.70001 1.88476,2.20748 0.38335,0.22466 0.79996,0.60758 0.92581,0.85094 0.12584,0.24336 0.44982,0.62844 0.71994,0.85573 0.27012,0.22729 0.6565,0.65695 0.85862,0.95479 0.46436,0.68426 2.3027,2.5241 3.02076,3.0232 0.2997,0.20832 0.60006,0.46828 0.66745,0.57768 0.0674,0.10941 0.45274,0.42325 0.8563,0.69742 0.40357,0.27418 1.26837,1.06577 1.92179,1.7591 1.8397,1.95205 3.30305,2.53388 5.31988,2.11519 0.48564,-0.10082 0.92868,-0.17256 0.98454,-0.15942 0.0558,0.0131 0.15798,-0.0674 0.22695,-0.17902 0.10144,-0.16413 0.26838,-0.15269 0.8737,0.0599 0.81755,0.28713 2.03875,0.38276 2.77228,0.2171 0.35611,-0.0804 0.3931,-0.0705 0.15569,0.0417 -0.35108,0.16589 0.0739,0.21191 1.97338,0.21365 1.44289,10e-4 2.24179,-1.18772 1.72246,-2.5636 -0.14263,-0.37785 -0.12855,-0.59345 0.0714,-1.09314 0.17627,-0.44053 0.19873,-0.65355 0.0769,-0.72887 -0.15354,-0.0949 -0.15517,-1.65736 -0.002,-1.81064 0.031,-0.031 0.0108,-0.63878 -0.045,-1.35062 -0.0558,-0.71184 -0.0663,-1.74965 -0.0234,-2.30624 0.0429,-0.55659 0.006,-1.273 -0.0828,-1.59202 -0.17291,-0.62369 0.0335,-1.37631 0.66294,-2.417 0.30602,-0.506 0.30602,-0.506 3.53466,-0.506 3.22864,0 3.22864,0 3.52977,0.68074 0.58976,1.33327 2.33944,2.74445 3.40273,2.74445 0.58542,0 0.55262,32.04731 -0.034,33.23985 -0.21061,0.42815 -0.38357,0.8377 -0.38436,0.91011 -7.8e-4,0.0724 -0.13688,0.3219 -0.30245,0.55441 -0.16556,0.23252 -0.344,0.59397 -0.39652,0.80322 -0.0561,0.22355 -0.35267,0.52848 -0.71907,0.73935 -0.34297,0.19739 -0.8126,0.62866 -1.04362,0.95838 -0.41399,0.59087 -0.43793,0.60089 -1.66555,0.69764 -1.25406,0.0988 -28.48375,0.20101 -31.86165,0.11956 z m 24.26012,-6.09098 c 3.69015,-1.09897 6.4415,-5.20778 6.04203,-9.02307 -0.8357,-7.98172 -10.87448,-10.68909 -15.95591,-4.30316 -5.27693,6.6316 1.55533,15.81552 9.91388,13.32623 z m -89.704847,0.0601 c 5.139516,-1.08831 8.202616,-6.64954 6.291444,-11.42247 -2.809149,-7.01551 -12.792548,-7.65455 -16.209803,-1.03758 -3.424996,6.63195 2.469774,14.03733 9.918359,12.46005 z m 45.928607,-37.66179 c 4.07226,-0.72101 7.45876,-3.06618 10.14868,-7.028016 1.17587,-1.731862 1.47952,-2.32967 1.61642,-3.182277 0.0619,-0.385333 0.22596,-1.296121 0.36464,-2.023972 2.31377,-12.143655 -9.57492,-22.489002 -21.15977,-18.412899 -11.852334,4.170216 -13.676844,20.810056 -3.074066,28.036004 1.476206,1.00606 1.655806,1.11385 2.529156,1.51795 0.47096,0.21792 1.06647,0.49596 1.32336,0.61787 1.27656,0.6058 5.98337,0.87694 8.25158,0.47534 z m 44.4172,-52.181125 c 7.51818,-1.540304 9.58462,-11.588577 3.17658,-15.446429 -5.09562,-3.067723 -12.15809,0.160876 -13.36624,6.110354 -0.26045,1.282565 -0.13523,3.541311 0.23482,4.23575 0.0839,0.157438 0.26627,0.547855 0.40528,0.867591 1.43824,3.308127 5.42893,5.076956 9.54956,4.232734 z M 64.396521,50.523794 c 2.520651,-0.669833 4.409396,-2.166495 5.289908,-4.191783 0.139008,-0.319736 0.321383,-0.710153 0.405279,-0.867592 0.370047,-0.694439 0.495264,-2.953184 0.234816,-4.235749 -1.808784,-8.907267 -14.611669,-9.869895 -16.953438,-1.274701 -1.708351,6.270301 4.565463,12.285949 11.023435,10.569825 z"
         id="path838"
         inkscape:connector-curvature="0" />
    </g>
  </g>
</svg>
